<?xml version="1.0" encoding="iso-8859-1"?>
<!-- Uploaded to: SVG Repo, www.svgrepo.com, Generator: SVG Repo Mixer Tools -->
<!DOCTYPE svg PUBLIC "-//W3C//DTD SVG 1.1//EN" "http://www.w3.org/Graphics/SVG/1.1/DTD/svg11.dtd">
<svg fill="#000000" version="1.1" id="Capa_1" xmlns="http://www.w3.org/2000/svg" xmlns:xlink="http://www.w3.org/1999/xlink" 
	 width="800px" height="800px" viewBox="0 0 42.34 42.339"
	 xml:space="preserve">
<g>
	<g>
		<path d="M17.664,33.884c0.217,0.09,0.467,0.043,0.635-0.121l1.318-1.285l1.164,1.178c0.11,0.113,0.252,0.168,0.422,0.174
			c0.158-0.002,0.311-0.067,0.418-0.184l1.148-1.219l1.263,1.322c0.164,0.17,0.418,0.227,0.64,0.139
			c0.223-0.09,0.366-0.303,0.366-0.543v-1.475v-1.588v-0.416c0-0.263-0.026-0.515-0.077-0.761h-7.574
			c-0.051,0.246-0.078,0.498-0.078,0.761v0.416v1.588v1.475C17.307,33.582,17.447,33.794,17.664,33.884z"/>
		<path d="M29.981,30.285v1.588v1.588c0,1.129-0.919,2.047-2.048,2.047H14.41c-1.129,0-2.047-0.918-2.047-2.047v-1.588v-1.588
			v-1.179h-0.705v1.179v1.588v1.588c0,1.518,1.234,2.752,2.752,2.752h13.523c1.519,0,2.755-1.234,2.755-2.752v-1.588v-1.588v-1.179
			h-0.707V30.285L29.981,30.285z"/>
		<path d="M5.293,10.64h31.757c0.152,0,0.299-0.064,0.398-0.18c0.102-0.114,0.145-0.268,0.127-0.417l-0.707-5.411
			c-0.033-0.264-0.26-0.461-0.523-0.461H5.998c-0.267,0-0.488,0.197-0.523,0.461L4.77,10.043c-0.021,0.15,0.025,0.303,0.127,0.417
			C4.996,10.576,5.141,10.64,5.293,10.64z M23.188,6.07c0-0.334,0.447-0.604,1-0.604c0.554,0,1,0.271,1,0.604v2.672
			c0,0.334-0.446,0.604-1,0.604c-0.553,0-1-0.271-1-0.604V6.07z M17.156,6.07c0-0.334,0.447-0.604,1-0.604c0.554,0,1,0.271,1,0.604
			v2.672c0,0.334-0.446,0.604-1,0.604c-0.553,0-1-0.271-1-0.604V6.07z"/>
		<path d="M38.344,11.582H4c-2.209,0-4,1.791-4,4.001v12.288c0,2.209,1.791,4.002,4,4.002h5.703v1.589
			c0,2.594,2.11,4.707,4.707,4.707h13.52c2.597,0,4.707-2.111,4.707-4.707v-1.589h5.703c2.209,0,4-1.793,4-4.002V15.583
			C42.344,13.373,40.553,11.582,38.344,11.582z M15.496,13.64c0-0.552,0.448-1,1.002-1h9.35c0.554,0,1,0.448,1,1v3.646
			c0,0.552-0.446,1-1,1h-3.104v2.778c0,0.195,0.154,0.354,0.354,0.354h1.062l-2.984,5.168l-2.983-5.168h1.062
			c0.195,0,0.354-0.158,0.354-0.354v-2.778h-3.104c-0.553,0-1.002-0.448-1.002-1V13.64H15.496z M33.877,30.285h-1.236v-1.179h-1.409
			v1.179v1.588v1.588c0,1.816-1.479,3.295-3.298,3.295H14.413c-1.816,0-3.295-1.479-3.295-3.295v-1.588v-1.588v-1.179H9.706v1.179
			H8.472c-0.485,0-0.881-0.396-0.881-0.883c0-0.488,0.396-0.884,0.881-0.884h25.405c0.487,0,0.885,0.396,0.885,0.884
			C34.762,29.888,34.362,30.285,33.877,30.285z M34.502,15.331c-0.316,0-0.572-0.257-0.572-0.573c0-0.317,0.256-0.574,0.572-0.574
			c0.313,0,0.573,0.257,0.573,0.574C35.075,15.074,34.817,15.331,34.502,15.331z M36.221,15.331c-0.315,0-0.573-0.257-0.573-0.573
			c0-0.317,0.258-0.574,0.573-0.574c0.314,0,0.572,0.257,0.572,0.574C36.793,15.074,36.538,15.331,36.221,15.331z M38.868,15.816
			c-0.586,0-1.06-0.474-1.06-1.059s0.474-1.059,1.06-1.059c0.584,0,1.06,0.474,1.06,1.059S39.452,15.816,38.868,15.816z"/>
	</g>
</g>
</svg>